<svg fill="#ffffff" viewBox="-2.4 -2.4 28.80 28.80" xmlns="http://www.w3.org/2000/svg" stroke="#ffffff" stroke-width="0.00024000000000000003"><g id="SVGRepo_bgCarrier" stroke-width="0"></g><g id="SVGRepo_tracerCarrier" stroke-linecap="round" stroke-linejoin="round"></g><g id="SVGRepo_iconCarrier"><path d="M22,11H12a1,1,0,0,0-1,1V22a1,1,0,0,0,1,1H22a1,1,0,0,0,1-1V12A1,1,0,0,0,22,11ZM21,21H13V13h8ZM2,13a1,1,0,0,1-1-1V2A1,1,0,0,1,2,1H12a1,1,0,0,1,0,2H3v9A1,1,0,0,1,2,13ZM17,6a1,1,0,0,1,0,2H8v9a1,1,0,0,1-2,0V7A1,1,0,0,1,7,6Z"></path></g></svg>